<?xml version="1.0" encoding="utf-8"?>
<!-- Generator: Adobe Illustrator 19.2.1, SVG Export Plug-In . SVG Version: 6.00 Build 0)  -->
<svg version="1.1" id="layer" xmlns="http://www.w3.org/2000/svg" xmlns:xlink="http://www.w3.org/1999/xlink" x="0px" y="0px"
	 viewBox="0 0 652 652" style="enable-background:new 0 0 652 652;" xml:space="preserve">
<style type="text/css">
	.st0{fill:#1C95CD;}
	.st1{fill:#231F20;}
</style>
<g>
	<g transform="matrix(.13 0 0 -.13 0 72.5)">
		<path class="st0" d="M4049.8-1982.6c-21.9,3.7-198.3,21-311.4,15c-62.9-3.3-329.7-33.1-445.1-55.9
			c-101.1-20-242.6-51.4-397.3-53.6c-191.3-2.7-281.6,38.6-332.1,59.3c-50.4,20.8-91.2,58.3-107.9,77.4c-15,17.2-16,45.9-16,45.9
			s166,177.3,245.6,332.6c68.1,132.7,88.3,230.2,94.3,276.7c6.1,46.5-5.9,85-29.9,103.3c-24.3,18.4-61.7,23.1-96.7,3.7
			c-48.4-26.7-92.6-80.3-128-130.2c-35.3-49.9-84.3-122.2-120-244.6c-38.9-133.8-45.3-190.7-46.3-221.4c-1.1-30.6,2.7-84,2.7-84
			s-39.5-53.3-83.4-95.6c-43.9-42.2-92.9-80.5-152.7-70.5c-46.1,7.8-50.4,60.9-51,88.8c-0.5,27.8,12.5,63.8,16.5,94.4
			c4.1,30.5,6.6,21.7-6.1,33.8c-12.7,12.2-30.4,7-55.4,6.4c-24.9-0.6-19.5-15.4-33.6-39.8c-13.9-24.3-47.7-95.1-88.4-131.7
			c-40.7-36.6-57.6-35.7-89.6-31.6c-32,4-50.6,19.3-64.2,47.5c-13.6,28.3-8.7,130.3-10.5,158.2c-2,27.8-15.3,47.9-38.9,59.8
			c-28.4,14.5-59.6,6.9-86.4-15.1c-27.7-22.7-75.1-88.8-95.2-121.7c-20.1-33-62-79.9-73-79.5c-13.1,0.5-11.9,22.5-7.4,60.3
			c3,25,5.8,58.2,6.8,87.5c1.1,29.1-14.6,41.4-43.6,48.2c-28.9,6.8-53.5-8.7-71.3-34c-20.6-29.2-60.3-78.2-101.6-130.8
			c-41.3-52.6-107.2-114.7-131.9-112.4c-24.8,2.4-35.9,20.2-45.1,49.8c-9.2,29.6,5,143,9.4,185.3c4.4,42.3,32.7,226.8,53.7,324.1
			c20.9,97.2,28.7,111.5,47.3,182.5c18.5,71,24,58.8,17.8,92.6c-6.1,33.8-23.6,33.3-42.5,38.3c-18.8,5.1-27.2,5.4-45-2.8
			c-17.9-8.2-31.5-15.3-43.3-60.1c-11.8-44.9-36.5-122-107.6-273c-71.1-151-153-282.5-239.8-416.6
			C631-2031.6,593.6-2042.3,568-2036.5c-21.4,4.8-23.5,34.7-24,61c-0.6,26.4,7.1,63.7,20.4,110c13.3,46.3,48.4,137.5,80.2,213.8
			c32,76.4,97.3,210.3,150.6,328.3c58.3,129.2,68.7,186.2,74.6,204.4c7.6,23.7-15.6,33.3-34.3,41.3c-18.7,8-48.9-1-48.9-1
			c-19.9-6.5-34.9-11.1-51.6-29.6c-16.8-18.4-65.4-51.9-88-58.7c-16.5-5-17.5-13.8-8.2-29.7c0,0,4.5-17.9,25-15.7
			c20.5,2.2,15.9,5,37.9,8.6c22,3.6,24.2-21.6,9.6-62c-14.6-40.4-72.5-184.7-111.1-287.1c-38.7-102.4-138.8-335.8-148.7-446.1
			c-8.1-88.5-14.9-145.9,40.1-194.8c73.1-65,233.2,67.1,289.5,175.9c37.4,72,175.7,331.7,200.9,386.4
			c25.3,54.7,72.5,153.9,64.2,129.3c-8.1-24.6-54.1-220.2-74.9-394.9c-20.8-174.6,39.5-190.9,81.2-210c41.7-19,96.1,15.3,124.5,36.3
			c28.6,20.9,134.5,158.6,143.9,177.4c9.4,18.6,32.3,18.6,31.9,8.4c-0.3-10.3,0.1-91.1,15-126.6c14.9-35.6,28.8-53.6,70.7-69.7
			c41.7-16,65.8,11.3,114.2,78.8c49.9,69.4,75.1,134.2,86.5,148.1c15.7,19,15.1-10.5,17.7-38.6c2.9-31,4.4-83.5,42.3-128.6
			c37.8-45.1,63.8-68,140.1-58.8c76.3,9,149.6,111.5,149.6,111.5s6.4-68.9,55.8-115.9c49.5-47.1,73.9-45.6,148.8-36.5
			c74.9,9,198,170.5,198,170.5s56.1-74.8,123.6-112.5c84.4-47.1,247.7-79,387.9-81c140.3-2,367.8,39.1,547.2,83.5
			c158.1,39.1,346.1,60.1,416.2,61.9c70.3,2,162.4-15.2,169.9-8.1C4043.8-2000.4,4071.6-1986.3,4049.8-1982.6L4049.8-1982.6z
			 M2531.6-1439.4c71.4,121.7,135.4,180.3,155.9,172c20.5-8.3,20.4-13.9,5.5-58.7c-14.7-44.7-44.9-149.3-124.2-261.7
			c-79.5-112.4-140.5-189.5-140.5-189.5S2440.3-1594.9,2531.6-1439.4"/>
	</g>
</g>
<path class="st0" d="M254.7,287.1c0-0.2-0.3-0.8,0.7-0.6c1.1,0.1,2,0.5,2.1,0.5c0.1,0,0.8,0.1,0.8,0.1s0.6-2.8,0.9-3
	c0.3-0.3,0.8-0.4,1.1-0.9c0.3-0.5,0.8-1.3,1.7-1.8c1-0.4,0.9-0.5,1.9-0.4c1,0,2.3,0,3,0.3c0.7,0.3,0.9,0.4,1.5,0.9
	c0.5,0.6,1.1,0.9,1.1,1.6c0,0.7,0,0.9-0.1,1.4c-0.1,0.5-0.4,0.8-0.1,1.3c0.3,0.5,0.5,0.8,0.4,1.4c-0.1,0.6,0.2,1.4-0.4,1.7
	c-0.6,0.2-2.3,1.2-3.1,1.4c-0.7,0.2-3.3,1-4,1c-0.7,0-2.8,0.1-3.5,0c-0.7-0.1-2.3-0.3-2.6-0.8c-0.3-0.6-0.5-0.8-0.7-1.5L254.7,287.1
	"/>
<path class="st1" d="M20.8,392.3h5.9v17c0,5,1.6,8.3,6.1,8.3c4.5,0,6.1-3.3,6.1-8.3v-17h5.9v18.8c0,7.9-4.5,11.2-12,11.2
	c-7.6,0-12-3.3-12-11.2V392.3 M53.5,392.3h7.3L72,414.3h0.1v-22.1h5.7v29.5h-7.2l-11.3-22.1h-0.1v22h-5.7V392.3 M86.2,392.3h5.9
	v29.5h-5.9L86.2,392.3 M100.7,392.3h5.9v24.8h11.5v4.6h-17.4V392.3 M141,390v42.3h-2.9V390H141 M185.4,411.4
	c0,8.7-6.4,10.8-10.7,10.8c-4.3,0-10.7-2.1-10.7-10.8v-19.2h2.9v19.2c0,4.8,2.7,8.3,7.8,8.3c5.1,0,7.8-3.5,7.8-8.3v-19.2h2.9V411.4
	 M194.4,405.3c0-1.7,0-3.3-0.2-5.1h2.6v3.8h0.1c0.9-1.9,2.5-4.3,7-4.3c5.3,0,7.3,3.5,7.3,8.3v13.8h-2.7v-13.1c0-4.1-1.4-6.7-5.1-6.7
	c-4.9,0-6.4,4.3-6.4,7.9v11.9h-2.7V405.3 M222.9,394.4h-2.7v-3.5h2.7V394.4 M220.2,400.2h2.7v21.5h-2.7V400.2 M239.4,421.7h-3.1
	l-7.3-21.5h2.9l6,18.6h0.1l6.3-18.6h2.8L239.4,421.7 M267.5,421.1c-2,0.8-4.1,1.2-6.3,1.2c-7.1,0-9.8-4.8-9.8-11.3
	c0-6.6,3.6-11.3,9.1-11.3c6.1,0,8.6,4.9,8.6,10.7v1.4h-14.8c0,4.6,2.5,8.2,7.1,8.2c1.9,0,4.8-0.8,6-1.6L267.5,421.1 M266.2,409.5
	c0-3.8-1.5-7.5-5.5-7.5c-3.9,0-6.4,3.9-6.4,7.5H266.2 M276.5,405c0-2.4,0-3.2-0.2-4.8h2.7v4.1h0.1c1-2.4,2.8-4.6,5.5-4.6
	c0.6,0,1.4,0.1,1.9,0.3v2.8c-0.6-0.2-1.3-0.3-1.9-0.3c-4.2,0-5.4,4.7-5.4,8.6v10.6h-2.7L276.5,405 M291.2,418.6
	c1.7,0.9,3.7,1.3,5.6,1.4c2.5,0,4.8-1.4,4.8-3.8c0-5.1-10.4-4.3-10.4-10.6c0-4.3,3.5-5.9,7-5.9c1.8,0,3.6,0.4,5.3,1l-0.3,2.3
	c-1.4-0.6-3.3-1-4.8-1c-2.7,0-4.6,0.8-4.6,3.6c0,4,10.6,3.5,10.6,10.6c0,4.6-4.3,6.1-7.5,6.1c-2.1,0-4.1-0.2-6-1L291.2,418.6
	 M314.3,394.4h-2.7v-3.5h2.7V394.4 M311.6,400.2h2.7v21.5h-2.7V400.2 M332.6,402.5h-4.9v13.9c0,2,0.7,3.6,2.9,3.6
	c1,0,1.7-0.2,2.5-0.5l0.2,2.2c-0.6,0.3-2,0.6-3.3,0.6c-4.7,0-4.9-3.2-4.9-7.2v-12.6h-4.2v-2.3h4.2V395l2.7-0.9v6.1h4.9L332.6,402.5
	 M354.2,421.1c-1.8,0.8-4.3,1.2-6.2,1.2c-7.1,0-9.8-4.8-9.8-11.3c0-6.6,3.6-11.3,9.1-11.3c6.1,0,8.6,4.9,8.6,10.7v1.4H341
	c0,4.6,2.5,8.2,7.1,8.2c1.9,0,4.8-0.8,6-1.6L354.2,421.1 M352.9,409.5c0-3.8-1.5-7.5-5.5-7.5c-3.9,0-6.3,3.9-6.3,7.5H352.9
	 M348.4,391.9h3.3l-5.3,6.1h-2L348.4,391.9 M394.3,421.7h-2.7v-3.4h-0.1c-1.4,2.8-3.6,3.9-6.7,3.9c-5.9,0-8.9-4.9-8.9-11.3
	c0-6.6,2.5-11.3,8.9-11.3c4.2,0,6.4,3.1,6.7,4.1h0.1V390h2.7L394.3,421.7 M385.3,420c4.7,0,6.4-5.1,6.4-9c0-3.9-1.6-9-6.4-9
	c-5.1,0-6.4,4.8-6.4,9C378.9,415.2,380.2,420,385.3,420 M417.5,421.1c-2,0.8-4.1,1.2-6.3,1.2c-7.1,0-9.8-4.8-9.8-11.3
	c0-6.6,3.6-11.3,9.1-11.3c6.1,0,8.6,4.9,8.6,10.7v1.4h-14.7c0,4.6,2.5,8.2,7.1,8.2c1.9,0,4.8-0.8,6-1.6L417.5,421.1 M416.2,409.5
	c0-3.8-1.5-7.5-5.5-7.5c-3.9,0-6.3,3.9-6.3,7.5H416.2 M440.6,392.3h2.9v26.9h11.8v2.5h-14.8V392.3 M474,418.3L474,418.3
	c-1.3,2.6-4.3,4-6.9,4c-6.1,0-7.1-4.1-7.1-6.1c0-7.2,7.7-7.6,13.3-7.6h0.5v-1.1c0-3.7-1.3-5.5-4.9-5.5c-2.2,0-4.4,0.5-6.4,1.8v-2.6
	c1.6-0.8,4.4-1.5,6.4-1.5c5.3,0,7.5,2.4,7.5,8v9.5c0,1.7,0,3,0.2,4.5H474L474,418.3 M473.8,410.9H473c-4.6,0-10.1,0.5-10.1,5.2
	c0,2.8,2,3.9,4.5,3.9c6.2,0,6.4-5.4,6.4-7.8L473.8,410.9 M501.9,416.7c0,1.6,0,3.4,0.2,5.1h-2.6v-3.8h-0.1c-0.9,1.9-2.5,4.4-7,4.4
	c-5.3,0-7.4-3.5-7.4-8.3v-13.8h2.7v13.1c0,4.1,1.4,6.7,5.1,6.7c4.8,0,6.4-4.3,6.4-7.9v-11.9h2.7L501.9,416.7 M509.3,418.6
	c1.7,0.9,3.7,1.3,5.6,1.4c2.5,0,4.8-1.4,4.8-3.8c0-5.1-10.4-4.3-10.4-10.6c0-4.3,3.5-5.9,7-5.9c1.8,0,3.6,0.4,5.3,1l-0.3,2.3
	c-1.5-0.6-3.1-1-4.8-1c-2.7,0-4.6,0.8-4.6,3.6c0,4,10.6,3.5,10.6,10.6c0,4.6-4.3,6.1-7.5,6.1c-2.1,0-4.1-0.2-6-1L509.3,418.6
	 M542,418.3L542,418.3c-1.3,2.6-4.3,4-6.9,4c-6.1,0-7.1-4.1-7.1-6.1c0-7.2,7.7-7.6,13.3-7.6h0.5v-1.1c0-3.7-1.3-5.5-4.9-5.5
	c-2.2,0-4.3,0.5-6.3,1.8v-2.6c1.6-0.8,4.4-1.5,6.3-1.5c5.3,0,7.6,2.4,7.6,8v9.5c0,1.7,0,3,0.2,4.5H542V418.3 M541.8,410.9H541
	c-4.6,0-10.1,0.5-10.1,5.2c0,2.8,2,3.9,4.5,3.9c6.2,0,6.4-5.4,6.4-7.8V410.9 M553.1,405.3c0-1.7,0-3.3-0.2-5.1h2.6v3.8h0.1
	c0.9-1.9,2.5-4.3,7-4.3c5.3,0,7.4,3.5,7.4,8.3v13.8h-2.7v-13.1c0-4.1-1.4-6.7-5.1-6.7c-4.8,0-6.4,4.3-6.4,7.9v11.9h-2.7L553.1,405.3
	 M578.9,405.3c0-1.7,0-3.3-0.2-5.1h2.6v3.8h0.1c0.9-1.9,2.5-4.3,7-4.3c5.3,0,7.3,3.5,7.3,8.3v13.8h-2.7v-13.1c0-4.1-1.4-6.7-5.1-6.7
	c-4.9,0-6.4,4.3-6.4,7.9v11.9h-2.7V405.3 M619.2,421.1c-1.9,0.8-4.3,1.2-6.2,1.2c-7.2,0-9.8-4.8-9.8-11.3c0-6.6,3.6-11.3,9.1-11.3
	c6.1,0,8.6,4.9,8.6,10.7v1.4H606c0,4.6,2.5,8.2,7.1,8.2c2,0,4.8-0.8,6-1.6V421.1 M617.9,409.5c0-3.8-1.5-7.5-5.5-7.5
	c-3.9,0-6.3,3.9-6.3,7.5H617.9"/>
</svg>
